<?xml version="1.0" encoding="UTF-8"?>
<svg id="Layer_1" xmlns="http://www.w3.org/2000/svg" viewBox="0 0 16 6.67">
  <defs>
    <style>
      .cls-1 {
        fill: #3c7ab7;
      }
    </style>
  </defs>
  <path class="cls-1" d="M16,6.66L13.58,0h-2.5l-.42,1.21c.46.58.73,1.31.73,2.11,0,1.61-1.11,2.96-2.61,3.32h0s2.53.01,2.53.01c0,0,1.07-4.02,1.08-4.03,0,0,0,0,0,0h0c.02.06,1.08,4.03,1.08,4.03h2.53Z"/>
  <path class="cls-1" d="M7.12,0h-2.43s-1.07,3.97-1.08,4.03h0s0,0,0,0c0,0-1.08-4.03-1.08-4.03H0l2.31,6.66h2.5l.45-1.25c-.45-.58-.72-1.31-.72-2.09C4.55,1.72,5.64.38,7.12,0Z"/>
  <path class="cls-1" d="M7.97,1.75c-.87,0-1.57.7-1.57,1.57s.71,1.57,1.57,1.57,1.57-.7,1.57-1.57-.71-1.57-1.57-1.57Z"/>
</svg>