<?xml version="1.0" encoding="utf-8"?><svg version="1.1" id="Layer_1" xmlns="http://www.w3.org/2000/svg" xmlns:xlink="http://www.w3.org/1999/xlink" x="0px" y="0px" viewBox="0 0 160 90" style="enable-background:new 0 0 160 90;" xml:space="preserve"><style type="text/css">.st0{fill:#768492;}</style><g><g id="Layer_1-2"><path id="V" class="st0" d="M59.3,45c0-9.4,6.3-17.5,15.3-20l0,0H57.4L51,48.7L44.7,25H30l14.6,40h15.5l3-8.1C60.6,53.4,59.3,49.2,59.3,45z"/><path id="O" class="st0" d="M80,35c-5.5,0-10,4.5-10,10s4.5,10,10,10s10-4.5,10-10S85.5,35,80,35z"/><path id="A" class="st0" d="M100.7,45c0,9.4-6.3,17.5-15.3,20l0,0h17.3l6.3-23.7l6.3,23.7H130l-14.6-40H99.9l-3,8.1C99.4,36.6,100.7,40.8,100.7,45z"/></g></g></svg>